<?xml version="1.0" encoding="UTF-8"?>
<svg id="Layer_1" data-name="Layer 1" xmlns="http://www.w3.org/2000/svg" viewBox="0 0 289.13 333.86">
  <defs>
    <style>
      .cls-1 {
        fill: #231f20;
      }
    </style>
  </defs>
  <g>
    <circle class="cls-1" cx="144.57" cy="133.37" r="14.82"/>
    <circle class="cls-1" cx="144.57" cy="181.95" r="27.58"/>
    <circle class="cls-1" cx="144.57" cy="223.95" r="8.25"/>
    <path class="cls-1" d="M100.82,184.33l10.4-8.05c4.3-3.32,1.72-10.2-3.7-9.89l-29.17,1.69c-3.07.18-5.27,3.02-4.68,6.03h0c2.44,12.44,17.12,17.96,27.15,10.21Z"/>
    <path class="cls-1" d="M71.86,160.11l46.4.05c4.51,0,5.99-6.06,1.97-8.12l-53.85-27.71c-7.65-3.93-16.87.98-17.86,9.52h0c-1.63,13.97,9.28,26.24,23.35,26.25Z"/>
    <path class="cls-1" d="M188.32,184.33l-10.4-8.05c-4.3-3.32-1.72-10.2,3.7-9.89l29.17,1.69c3.07.18,5.27,3.02,4.68,6.03h0c-2.44,12.44-17.12,17.96-27.15,10.21Z"/>
    <path class="cls-1" d="M217.28,160.11l-46.4.05c-4.51,0-5.99-6.06-1.97-8.12l53.85-27.71c7.65-3.93,16.87.98,17.86,9.52h0c1.63,13.97-9.28,26.24-23.35,26.25Z"/>
  </g>
  <path class="cls-1" d="M24.93,97.86v138.15l119.64,69.07,119.64-69.07V97.86L144.57,28.78,24.93,97.86ZM256.86,102.1v129.67l-112.29,64.83-112.29-64.83V102.1l112.29-64.83,112.29,64.83Z"/>
  <path class="cls-1" d="M0,83.47v166.93l144.57,83.47,144.57-83.47V83.47L144.57,0,0,83.47ZM280.26,88.59v156.68l-135.69,78.34L8.88,245.27V88.59L144.57,10.25l135.69,78.34Z"/>
</svg>