<?xml version="1.0" encoding="UTF-8"?>
<svg id="Layer_1" data-name="Layer 1" xmlns="http://www.w3.org/2000/svg" viewBox="0 0 471.64 332.66">
  <defs>
    <style>
      .cls-1 {
        fill: #231f20;
      }
    </style>
  </defs>
  <g>
    <circle class="cls-1" cx="235.82" cy="88.58" r="9.84"/>
    <circle class="cls-1" cx="235.82" cy="120.84" r="18.31"/>
    <circle class="cls-1" cx="235.82" cy="148.73" r="5.48"/>
    <path class="cls-1" d="M206.77,122.41l6.91-5.34c2.85-2.21,1.14-6.78-2.46-6.57l-19.37,1.13c-2.04.12-3.5,2.01-3.11,4.01h0c1.62,8.26,11.37,11.93,18.03,6.78Z"/>
    <path class="cls-1" d="M187.53,106.33l30.81.03c3,0,3.98-4.02,1.31-5.4l-35.76-18.4c-5.08-2.61-11.2.65-11.86,6.32h0c-1.08,9.28,6.16,17.42,15.5,17.44Z"/>
    <path class="cls-1" d="M264.88,122.41l-6.91-5.34c-2.85-2.21-1.14-6.78,2.46-6.57l19.37,1.13c2.04.12,3.5,2.01,3.11,4.01h0c-1.62,8.26-11.37,11.93-18.03,6.78Z"/>
    <path class="cls-1" d="M284.11,106.33l-30.81.03c-3,0-3.98-4.02-1.31-5.4l35.76-18.4c5.08-2.61,11.2.65,11.86,6.32h0c1.08,9.28-6.16,17.42-15.5,17.44Z"/>
  </g>
  <g>
    <path class="cls-1" d="M48.43,288.55c-.95-4.12-2.84-7.53-3.71-8.78-1.55-1.88-2.24-2.6-7.33-2.6h-5.52v42.13c0,7.53.86,8.07,8.53,8.69v3.32H11.81v-3.32c7.33-.63,8.1-1.17,8.1-8.69v-42.13h-5.26c-4.83,0-6.21.81-7.84,2.96-1.21,1.7-2.41,4.93-3.53,8.52H0c.6-6.54,1.21-13.54,1.38-17.84h2.58c1.29,2.06,2.33,2.24,4.91,2.24h34.47c2.33,0,3.53-.54,5-2.24h2.5c.09,3.76.43,11.65.86,17.48l-3.27.27Z"/>
    <path class="cls-1" d="M81.09,331.31v-3.32c5.43-.81,5.43-1.79,4.22-5.65-.86-2.69-2.24-6.72-3.53-10.31h-16.8c-.95,2.78-2.15,6.19-3.02,8.96-1.81,5.65.26,6.36,7.07,6.99v3.32h-21.29v-3.32c5.43-.72,6.81-1.52,9.74-9.05l17.93-46.34,4.14-.81c5.52,15.6,11.38,31.55,16.98,46.52,3.19,8.34,3.96,8.96,9.57,9.68v3.32h-24.99ZM73.51,288.46c-2.5,6.45-4.91,12.46-7.07,19h13.7l-6.64-19Z"/>
    <path class="cls-1" d="M163.39,331.85c-.52,0-1.55,0-2.59-.09-10.95-.54-14.13-2.96-16.72-6.72-3.45-4.93-5.95-10.4-8.88-15.78-1.29-2.42-2.5-2.96-5.26-2.96l-1.72-.09v13.09c0,7.26.86,7.89,7.33,8.69v3.32h-26.37v-3.32c6.55-.72,7.33-1.43,7.33-8.69v-34.33c0-7.08-.86-8.07-7.33-8.61v-3.32h24.99c7.67,0,12.06.9,15.6,3.41,3.45,2.42,5.77,6.36,5.77,11.92,0,7.98-5.08,12.19-10.77,14.52,1.29,2.69,4.65,8.52,7.24,12.64,3.02,4.93,4.91,7.35,6.55,9.32,1.98,2.33,2.93,3.05,5.43,3.94l-.6,3.05ZM130.56,302.54c3.71,0,6.55-.63,8.45-2.33,2.84-2.51,4.05-5.92,4.05-10.49,0-9.5-5.26-12.91-10.08-12.91-2.33,0-3.45.36-3.96.9-.6.54-.78,1.61-.78,3.41v21.42h2.33Z"/>
    <path class="cls-1" d="M222.94,276.36c-5.52.54-6.98,2.24-7.33,5.47-.26,2.69-.43,5.74-.43,12.01v11.74c0,7.71-1.21,15.51-6.12,20.89-3.96,4.3-10.08,6.19-16.2,6.19-5.69,0-11.38-1.26-15.43-4.66-5-3.94-7.41-9.41-7.41-19.45v-22.68c0-8.25-.77-8.87-7.32-9.5v-3.32h26.63v3.32c-6.46.63-7.24,1.25-7.24,9.5v23.84c0,10.04,4.74,16.67,13.96,16.67,10.26,0,14.74-7.89,14.74-21.33v-11.21c0-6.19-.26-9.41-.43-12.1-.34-4.12-2.76-5.02-8.79-5.38v-3.32h21.37v3.32Z"/>
    <path class="cls-1" d="M227.25,273.04h26.11v3.32c-6.21.81-7.15,1.25-7.15,8.78v15.06c1.81-.54,3.88-1.97,6.72-4.75,5.86-6.01,9.65-10.85,12.24-14.25,2.07-2.78,1.55-4.12-2.41-4.66l-1.64-.18v-3.32h22.58v3.32c-5.95.81-9.14,1.25-14.56,7.35-3.36,3.68-7.58,8.16-11.38,12.46,5.43,7.89,12.15,17.48,18.79,26.18,3.19,4.3,4.31,4.93,8.7,5.65v3.32h-17.15c-3.62-5.11-11.2-15.96-17.32-25.01-1.81-2.69-3.19-3.23-4.57-2.96v15.87c0,7.62.6,7.89,7.24,8.78v3.32h-26.2v-3.32c6.46-.72,7.33-1.17,7.33-8.78v-34.06c0-7.53-.86-8.16-7.33-8.78v-3.32Z"/>
    <path class="cls-1" d="M316.1,271.79c15.94,0,28.96,12.1,28.96,29.76,0,19.09-13.1,31.11-29.39,31.11-17.24,0-29.73-13.09-29.73-30.39,0-15.33,10.51-30.48,30.16-30.48ZM314.8,275.73c-8.79,0-15.25,8.96-15.25,24.83s5.77,28.15,17.41,28.15c8.19,0,14.56-8.25,14.56-24.65,0-17.75-6.72-28.33-16.72-28.33Z"/>
    <path class="cls-1" d="M379,273.04c11.03,0,19.13,2.42,24.65,7.8,4.39,4.21,7.76,10.49,7.76,19.54,0,10.31-4.14,18.2-10.77,23.4-6.38,5.02-14.56,7.53-24.39,7.53h-23.7v-3.32c6.55-.54,7.33-1.34,7.33-8.78v-34.06c0-7.53-.95-8.25-7.33-8.78v-3.32h26.46ZM371.85,318.58c0,6.36,1.55,8.52,7.84,8.52,11.63,0,18.36-8.43,18.36-25.37,0-8.52-2.24-15.96-6.2-19.81-3.62-3.77-8.1-5.02-13.88-5.02-3.19,0-4.65.72-5.17,1.26-.78.81-.95,2.33-.95,4.93v35.5Z"/>
    <path class="cls-1" d="M446.65,331.31v-3.32c5.43-.81,5.43-1.79,4.22-5.65-.86-2.69-2.24-6.72-3.53-10.31h-16.8c-.95,2.78-2.15,6.19-3.02,8.96-1.81,5.65.26,6.36,7.07,6.99v3.32h-21.29v-3.32c5.43-.72,6.81-1.52,9.74-9.05l17.92-46.34,4.14-.81c5.52,15.6,11.38,31.55,16.98,46.52,3.19,8.34,3.96,8.96,9.57,9.68v3.32h-24.99ZM439.07,288.46c-2.5,6.45-4.91,12.46-7.07,19h13.7l-6.64-19Z"/>
  </g>
  <path class="cls-1" d="M156.37,64.99v91.75l79.45,45.87,79.45-45.87v-91.75l-79.45-45.87-79.45,45.87ZM310.4,67.81v86.11l-74.58,43.06-74.58-43.06v-86.11l74.58-43.06,74.58,43.06Z"/>
  <path class="cls-1" d="M139.81,55.43v110.86l96.01,55.43,96.01-55.43V55.43L235.82,0l-96.01,55.43ZM325.94,58.83v104.06l-90.12,52.03-90.12-52.03V58.83L235.82,6.81l90.12,52.03Z"/>
</svg>