<?xml version="1.0" encoding="UTF-8"?>
<svg id="Layer_1" data-name="Layer 1" xmlns="http://www.w3.org/2000/svg" viewBox="0 0 325.87 192.45">
  <defs>
    <style>
      .cls-1 {
        fill: #231f20;
      }
    </style>
  </defs>
  <circle class="cls-1" cx="162.94" cy="25.1" r="25.1"/>
  <circle class="cls-1" cx="162.94" cy="107.36" r="46.7"/>
  <circle class="cls-1" cx="162.94" cy="178.48" r="13.97"/>
  <path class="cls-1" d="M88.85,111.39l17.61-13.63c7.28-5.63,2.92-17.28-6.27-16.74l-49.4,2.87c-5.19.3-8.92,5.11-7.92,10.22h0c4.12,21.07,28.99,30.42,45.98,17.28Z"/>
  <path class="cls-1" d="M39.81,70.38l78.57.09c7.64,0,10.14-10.26,3.34-13.76L30.52,9.79C17.57,3.13,1.96,11.46.27,25.92h0c-2.76,23.66,15.72,44.43,39.53,44.46Z"/>
  <path class="cls-1" d="M237.02,111.39l-17.61-13.63c-7.28-5.63-2.92-17.28,6.27-16.74l49.4,2.87c5.19.3,8.92,5.11,7.92,10.22h0c-4.12,21.07-28.99,30.42-45.98,17.28Z"/>
  <path class="cls-1" d="M286.07,70.38l-78.57.09c-7.64,0-10.14-10.26-3.34-13.76l91.19-46.92c12.95-6.66,28.56,1.66,30.25,16.13h0c2.76,23.66-15.72,44.43-39.53,44.46Z"/>
</svg>