<?xml version="1.0" encoding="UTF-8"?>
<svg id="Layer_1" data-name="Layer 1" xmlns="http://www.w3.org/2000/svg" viewBox="0 0 557.47 181.73">
  <defs>
    <style>
      .cls-1 {
        fill: #231f20;
      }
    </style>
  </defs>
  <g>
    <circle class="cls-1" cx="78.69" cy="72.6" r="8.07"/>
    <circle class="cls-1" cx="78.69" cy="99.04" r="15.01"/>
    <circle class="cls-1" cx="78.69" cy="121.9" r="4.49"/>
    <path class="cls-1" d="M54.88,100.33l5.66-4.38c2.34-1.81.94-5.55-2.01-5.38l-15.88.92c-1.67.1-2.87,1.64-2.55,3.28h0c1.33,6.77,9.32,9.78,14.78,5.56Z"/>
    <path class="cls-1" d="M39.11,87.15l25.25.03c2.46,0,3.26-3.3,1.07-4.42l-29.31-15.08c-4.16-2.14-9.18.53-9.72,5.18h0c-.89,7.6,5.05,14.28,12.71,14.29Z"/>
    <path class="cls-1" d="M102.5,100.33l-5.66-4.38c-2.34-1.81-.94-5.55,2.01-5.38l15.88.92c1.67.1,2.87,1.64,2.55,3.28h0c-1.33,6.77-9.32,9.78-14.78,5.56Z"/>
    <path class="cls-1" d="M118.27,87.15l-25.25.03c-2.46,0-3.26-3.3-1.07-4.42l29.31-15.08c4.16-2.14,9.18.53,9.72,5.18h0c.89,7.6-5.05,14.28-12.71,14.29Z"/>
  </g>
  <g>
    <path class="cls-1" d="M210.6,79.07c-.78-3.38-2.33-6.17-3.04-7.2-1.27-1.54-1.84-2.13-6-2.13h-4.52v34.53c0,6.17.71,6.61,6.99,7.13v2.72h-23.45v-2.72c6-.51,6.64-.96,6.64-7.13v-34.53h-4.31c-3.96,0-5.09.66-6.43,2.42-.99,1.4-1.98,4.04-2.9,6.98h-2.68c.49-5.36.99-11.09,1.13-14.62h2.12c1.06,1.69,1.91,1.84,4.03,1.84h28.25c1.91,0,2.9-.44,4.1-1.84h2.05c.07,3.09.35,9.55.71,14.33l-2.68.22Z"/>
    <path class="cls-1" d="M237.37,114.12v-2.72c4.45-.66,4.45-1.47,3.46-4.63-.71-2.2-1.84-5.51-2.9-8.45h-13.77c-.78,2.28-1.77,5.07-2.47,7.35-1.48,4.63.21,5.22,5.79,5.73v2.72h-17.45v-2.72c4.45-.59,5.58-1.25,7.98-7.42l14.69-37.98,3.39-.66c4.52,12.78,9.32,25.86,13.92,38.13,2.61,6.83,3.25,7.35,7.84,7.93v2.72h-20.48ZM231.15,79c-2.05,5.29-4.03,10.21-5.79,15.58h11.23l-5.44-15.58Z"/>
    <path class="cls-1" d="M304.82,114.56c-.42,0-1.27,0-2.12-.07-8.97-.44-11.58-2.42-13.7-5.51-2.83-4.04-4.87-8.52-7.28-12.93-1.06-1.98-2.05-2.42-4.31-2.42l-1.41-.07v10.73c0,5.95.71,6.47,6,7.13v2.72h-21.61v-2.72c5.37-.59,6-1.17,6-7.13v-28.14c0-5.8-.71-6.61-6-7.05v-2.72h20.48c6.29,0,9.89.73,12.78,2.79,2.83,1.98,4.73,5.22,4.73,9.77,0,6.54-4.17,9.99-8.83,11.9,1.06,2.2,3.81,6.98,5.93,10.36,2.47,4.04,4.03,6.02,5.37,7.64,1.62,1.91,2.4,2.5,4.45,3.23l-.49,2.5ZM277.91,90.54c3.04,0,5.37-.51,6.92-1.91,2.33-2.06,3.32-4.85,3.32-8.6,0-7.79-4.31-10.58-8.26-10.58-1.91,0-2.83.29-3.25.73-.49.44-.64,1.32-.64,2.79v17.56h1.91Z"/>
    <path class="cls-1" d="M353.63,69.08c-4.52.44-5.72,1.84-6,4.48-.21,2.2-.35,4.7-.35,9.85v9.62c0,6.32-.99,12.71-5.01,17.12-3.25,3.53-8.26,5.07-13.28,5.07-4.66,0-9.32-1.03-12.64-3.82-4.1-3.23-6.08-7.71-6.08-15.94v-18.59c0-6.76-.63-7.27-6-7.79v-2.72h21.83v2.72c-5.3.51-5.93,1.03-5.93,7.79v19.54c0,8.23,3.88,13.67,11.44,13.67,8.41,0,12.08-6.47,12.08-17.49v-9.18c0-5.07-.21-7.71-.35-9.92-.28-3.38-2.26-4.11-7.2-4.41v-2.72h17.52v2.72Z"/>
    <path class="cls-1" d="M357.16,66.36h21.4v2.72c-5.09.66-5.86,1.03-5.86,7.2v12.34c1.48-.44,3.18-1.62,5.51-3.89,4.8-4.92,7.91-8.89,10.03-11.68,1.7-2.28,1.27-3.38-1.98-3.82l-1.34-.15v-2.72h18.51v2.72c-4.87.66-7.49,1.03-11.94,6.02-2.75,3.01-6.22,6.69-9.32,10.21,4.45,6.47,9.96,14.33,15.4,21.45,2.61,3.53,3.53,4.04,7.13,4.63v2.72h-14.06c-2.97-4.19-9.18-13.08-14.2-20.5-1.48-2.2-2.61-2.65-3.74-2.42v13c0,6.24.5,6.47,5.93,7.2v2.72h-21.47v-2.72c5.3-.59,6-.96,6-7.2v-27.92c0-6.17-.71-6.69-6-7.2v-2.72Z"/>
    <path class="cls-1" d="M429.98,65.34c13.07,0,23.73,9.92,23.73,24.39,0,15.65-10.74,25.5-24.09,25.5-14.13,0-24.37-10.73-24.37-24.91,0-12.56,8.62-24.98,24.72-24.98ZM428.92,68.57c-7.21,0-12.5,7.35-12.5,20.35s4.73,23.07,14.27,23.07c6.71,0,11.94-6.76,11.94-20.2,0-14.55-5.51-23.22-13.7-23.22Z"/>
    <path class="cls-1" d="M481.54,66.36c9.04,0,15.68,1.98,20.2,6.39,3.6,3.45,6.36,8.6,6.36,16.02,0,8.45-3.39,14.91-8.83,19.18-5.23,4.11-11.94,6.17-19.99,6.17h-19.42v-2.72c5.37-.44,6-1.1,6-7.2v-27.92c0-6.17-.78-6.76-6-7.2v-2.72h21.68ZM475.68,103.69c0,5.22,1.27,6.98,6.43,6.98,9.54,0,15.04-6.91,15.04-20.79,0-6.98-1.84-13.08-5.08-16.24-2.97-3.09-6.64-4.11-11.37-4.11-2.61,0-3.81.59-4.24,1.03-.64.66-.78,1.91-.78,4.04v29.09Z"/>
    <path class="cls-1" d="M536.98,114.12v-2.72c4.45-.66,4.45-1.47,3.46-4.63-.71-2.2-1.84-5.51-2.9-8.45h-13.77c-.78,2.28-1.77,5.07-2.47,7.35-1.48,4.63.21,5.22,5.79,5.73v2.72h-17.45v-2.72c4.45-.59,5.58-1.25,7.98-7.42l14.69-37.98,3.39-.66c4.52,12.78,9.32,25.86,13.92,38.13,2.61,6.83,3.25,7.35,7.84,7.93v2.72h-20.48ZM530.77,79c-2.05,5.29-4.03,10.21-5.79,15.58h11.23l-5.44-15.58Z"/>
  </g>
  <path class="cls-1" d="M13.57,53.27v75.2l65.12,37.6,65.12-37.6V53.27L78.69,15.67,13.57,53.27ZM139.81,55.57v70.58l-61.12,35.29-61.12-35.29V55.57l61.12-35.29,61.12,35.29Z"/>
  <path class="cls-1" d="M0,45.43v90.86l78.69,45.43,78.69-45.43V45.43L78.69,0,0,45.43ZM152.55,48.22v85.29l-73.86,42.64L4.83,133.51V48.22L78.69,5.58l73.86,42.64Z"/>
</svg>