<?xml version="1.0" encoding="UTF-8"?>
<svg id="Layer_1" data-name="Layer 1" xmlns="http://www.w3.org/2000/svg" viewBox="0 0 410.87 242.64">
  <defs>
    <style>
      .cls-1 {
        fill: #231f20;
      }
    </style>
  </defs>
  <circle class="cls-1" cx="205.44" cy="31.65" r="31.65"/>
  <circle class="cls-1" cx="205.44" cy="135.36" r="58.88"/>
  <circle class="cls-1" cx="205.44" cy="225.04" r="17.61"/>
  <path class="cls-1" d="M112.03,140.44l22.21-17.18c9.17-7.1,3.68-21.78-7.9-21.11l-62.29,3.62c-6.54.38-11.25,6.45-9.99,12.88h0c5.2,26.57,36.56,38.36,57.97,21.79Z"/>
  <path class="cls-1" d="M50.19,88.73l99.06.11c9.64.01,12.78-12.94,4.21-17.35L38.48,12.35C22.16,3.95,2.47,14.44.34,32.68h0c-3.48,29.83,19.82,56.02,49.84,56.05Z"/>
  <path class="cls-1" d="M298.85,140.44l-22.21-17.18c-9.17-7.1-3.68-21.78,7.9-21.11l62.29,3.62c6.54.38,11.25,6.45,9.99,12.88h0c-5.2,26.57-36.56,38.36-57.97,21.79Z"/>
  <path class="cls-1" d="M360.68,88.73l-99.06.11c-9.64.01-12.78-12.94-4.21-17.35l114.98-59.15c16.33-8.4,36.01,2.1,38.14,20.33h0c3.48,29.83-19.82,56.02-49.84,56.05Z"/>
</svg>