<?xml version="1.0" encoding="UTF-8"?>
<svg id="Layer_1" data-name="Layer 1" xmlns="http://www.w3.org/2000/svg" viewBox="0 0 383.61 442.95">
  <defs>
    <style>
      .cls-1 {
        fill: #231f20;
      }
    </style>
  </defs>
  <g>
    <circle class="cls-1" cx="191.8" cy="176.95" r="19.67"/>
    <circle class="cls-1" cx="191.8" cy="241.4" r="36.59"/>
    <circle class="cls-1" cx="191.8" cy="297.12" r="10.94"/>
    <path class="cls-1" d="M133.76,244.55l13.8-10.68c5.7-4.41,2.28-13.54-4.91-13.12l-38.7,2.25c-4.07.24-6.99,4.01-6.21,8h0c3.23,16.51,22.72,23.83,36.02,13.54Z"/>
    <path class="cls-1" d="M95.33,212.42l61.56.07c5.99,0,7.94-8.04,2.62-10.78l-71.45-36.76c-10.14-5.22-22.38,1.3-23.7,12.64h0c-2.16,18.53,12.31,34.81,30.97,34.83Z"/>
    <path class="cls-1" d="M249.85,244.55l-13.8-10.68c-5.7-4.41-2.28-13.54,4.91-13.12l38.7,2.25c4.07.24,6.99,4.01,6.21,8h0c-3.23,16.51-22.72,23.83-36.02,13.54Z"/>
    <path class="cls-1" d="M288.28,212.42l-61.56.07c-5.99,0-7.94-8.04-2.62-10.78l71.45-36.76c10.14-5.22,22.38,1.3,23.7,12.64h0c2.16,18.53-12.31,34.81-30.97,34.83Z"/>
  </g>
  <path class="cls-1" d="M33.07,129.83v183.29l158.73,91.64,158.73-91.64v-183.29L191.8,38.19,33.07,129.83ZM340.79,135.46v172.03l-148.98,86.02-148.99-86.02v-172.03L191.8,49.44l148.98,86.02Z"/>
  <path class="cls-1" d="M0,110.74v221.48l191.8,110.74,191.8-110.74V110.74L191.8,0,0,110.74ZM371.83,117.54v207.88l-180.03,103.94L11.78,325.42V117.54L191.8,13.6l180.03,103.94Z"/>
</svg>