<?xml version="1.0" encoding="UTF-8"?>
<svg id="Layer_1" data-name="Layer 1" xmlns="http://www.w3.org/2000/svg" viewBox="0 0 456.4 371.26">
  <defs>
    <style>
      .cls-1 {
        letter-spacing: 0em;
      }

      .cls-2 {
        letter-spacing: -.04em;
      }

      .cls-3 {
        letter-spacing: 0em;
      }

      .cls-4, .cls-5 {
        fill: #231f20;
      }

      .cls-6 {
        letter-spacing: 0em;
      }

      .cls-5 {
        font-family: MinionConceptRoman-Bold, 'Minion Variable Concept';
        font-size: 86.24px;
        font-variation-settings: 'wght' 700, 'opsz' 11;
        font-weight: 700;
      }

      .cls-7 {
        letter-spacing: 0em;
      }

      .cls-8 {
        letter-spacing: -.01em;
      }

      .cls-9 {
        letter-spacing: .02em;
      }
    </style>
  </defs>
  <text class="cls-5" transform="translate(0 341.42) scale(.96 1)"><tspan class="cls-2" x="0" y="0">T</tspan><tspan class="cls-9" x="52.61" y="0">A</tspan><tspan class="cls-8" x="108.06" y="0">R</tspan><tspan class="cls-3" x="163.34" y="0">U</tspan><tspan class="cls-7" x="226.21" y="0">K</tspan><tspan class="cls-6" x="284.77" y="0">O</tspan><tspan class="cls-1" x="351.61" y="0">D</tspan><tspan x="418.45" y="0">A</tspan></text>
  <g>
    <g>
      <circle class="cls-4" cx="228.2" cy="102.46" r="11.39"/>
      <circle class="cls-4" cx="228.2" cy="139.78" r="21.18"/>
      <circle class="cls-4" cx="228.2" cy="172.04" r="6.34"/>
      <path class="cls-4" d="M194.59,141.6l7.99-6.18c3.3-2.55,1.32-7.84-2.84-7.6l-22.41,1.3c-2.35.14-4.05,2.32-3.59,4.63h0c1.87,9.56,13.15,13.8,20.86,7.84Z"/>
      <path class="cls-4" d="M172.34,123l35.64.04c3.47,0,4.6-4.66,1.52-6.24l-41.37-21.28c-5.87-3.02-12.96.75-13.72,7.32h0c-1.25,10.73,7.13,20.16,17.93,20.17Z"/>
      <path class="cls-4" d="M261.81,141.6l-7.99-6.18c-3.3-2.55-1.32-7.84,2.84-7.6l22.41,1.3c2.35.14,4.05,2.32,3.59,4.63h0c-1.87,9.56-13.15,13.8-20.86,7.84Z"/>
      <path class="cls-4" d="M284.06,123l-35.64.04c-3.47,0-4.6-4.66-1.52-6.24l41.37-21.28c5.87-3.02,12.96.75,13.72,7.32h0c1.25,10.73-7.13,20.16-17.93,20.17Z"/>
    </g>
    <path class="cls-4" d="M136.29,75.18v106.13l91.91,53.06,91.91-53.06v-106.13l-91.91-53.06-91.91,53.06ZM314.47,78.44v99.61l-86.27,49.81-86.27-49.81v-99.61l86.27-49.81,86.27,49.81Z"/>
    <path class="cls-4" d="M117.14,64.12v128.24l111.06,64.12,111.06-64.12V64.12L228.2,0l-111.06,64.12ZM332.44,68.06v120.37l-104.24,60.18-104.24-60.18v-120.37L228.2,7.87l104.24,60.18Z"/>
  </g>
</svg>